<mxfile host="app.diagrams.net" agent="Mozilla/5.0 (X11; Linux x86_64) AppleWebKit/537.36 (KHTML, like Gecko) Chrome/139.0.0.0 Safari/537.36" version="28.1.0">
  <diagram name="Page-1" id="5Rq26r_V3ZWVt_YFAXNm">
    <mxGraphModel dx="1678" dy="893" grid="1" gridSize="10" guides="1" tooltips="1" connect="1" arrows="1" fold="1" page="1" pageScale="1" pageWidth="1654" pageHeight="1169" math="0" shadow="0">
      <root>
        <mxCell id="0" />
        <mxCell id="1" parent="0" />
        <mxCell id="tF95PvESjqkz0QWZMO4N-1" value="Register 1" style="rounded=0;whiteSpace=wrap;html=1;fontColor=#FFFFFF;strokeColor=#000000;fillColor=#000000;fontSize=24;" parent="1" vertex="1">
          <mxGeometry x="444" y="545" width="240" height="40" as="geometry" />
        </mxCell>
        <mxCell id="tF95PvESjqkz0QWZMO4N-3" value="Register 2" style="rounded=0;whiteSpace=wrap;html=1;fontColor=#FFFFFF;fillColor=#000000;fontSize=24;" parent="1" vertex="1">
          <mxGeometry x="440" y="620" width="240" height="40" as="geometry" />
        </mxCell>
        <mxCell id="tF95PvESjqkz0QWZMO4N-5" value="Major Mode" style="rounded=0;whiteSpace=wrap;html=1;fillColor=#000000;fontColor=#FFFFFF;fontSize=24;" parent="1" vertex="1">
          <mxGeometry x="444" y="476.5" width="240" height="40" as="geometry" />
        </mxCell>
        <mxCell id="tF95PvESjqkz0QWZMO4N-6" value="OPR ERR" style="rounded=0;whiteSpace=wrap;html=1;fontSize=40;aspect=fixed;" parent="1" vertex="1">
          <mxGeometry x="180" y="336" width="216" height="108" as="geometry" />
        </mxCell>
        <mxCell id="tF95PvESjqkz0QWZMO4N-7" value="RESTART" style="rounded=0;whiteSpace=wrap;html=1;fontSize=40;fillColor=#FFFFFF;strokeColor=#000000;aspect=fixed;" parent="1" vertex="1">
          <mxGeometry x="444" y="336" width="216" height="108" as="geometry" />
        </mxCell>
        <mxCell id="tF95PvESjqkz0QWZMO4N-8" value="TEMP" style="rounded=0;whiteSpace=wrap;html=1;fontSize=40;fillColor=#FFFFFF;strokeColor=#000000;aspect=fixed;" parent="1" vertex="1">
          <mxGeometry x="180" y="476.5" width="216" height="108" as="geometry" />
        </mxCell>
        <mxCell id="tF95PvESjqkz0QWZMO4N-9" value="&lt;div&gt;COMP&lt;/div&gt;&lt;div&gt;ACTY&lt;br&gt;&lt;/div&gt;" style="rounded=0;whiteSpace=wrap;html=1;fontSize=40;fillColor=#FFFFFF;strokeColor=#000000;aspect=fixed;" parent="1" vertex="1">
          <mxGeometry x="180" y="200" width="216" height="108" as="geometry" />
        </mxCell>
        <mxCell id="tF95PvESjqkz0QWZMO4N-10" value="&lt;div&gt;UPLINK&lt;/div&gt;&lt;div&gt;ACTY&lt;br&gt;&lt;/div&gt;" style="rounded=0;whiteSpace=wrap;html=1;fontSize=40;aspect=fixed;" parent="1" vertex="1">
          <mxGeometry x="444" y="200" width="216" height="108" as="geometry" />
        </mxCell>
      </root>
    </mxGraphModel>
  </diagram>
</mxfile>
